<svg xmlns="http://www.w3.org/2000/svg" width="640" height="640" viewBox="0 0 640 640" version="1.1">
	<path d="M 155.500 26.492 C 142.034 28.671, 121.802 36.262, 115.500 41.501 C 113.798 42.916, 113.764 43.080, 115.277 42.603 C 116.254 42.295, 120.529 41.766, 124.777 41.428 C 155.351 38.998, 177 59.006, 177 89.693 C 177 100.014, 172.819 119.032, 168.436 128.651 C 167.646 130.384, 167 132.055, 167 132.364 C 167 132.673, 162.913 141.380, 157.917 151.713 C 142.235 184.149, 138.408 195.644, 136.010 217.500 C 134.954 227.132, 136.374 246.678, 138.535 252.250 C 138.909 253.213, 138.761 254, 138.207 254 C 137.193 254, 130 237.854, 130 235.578 C 130 234.906, 129.333 232.364, 128.518 229.928 C 127.703 227.493, 126.684 221.900, 126.255 217.500 L 125.474 209.500 120.237 217.205 C 117.357 221.443, 115 225.198, 115 225.550 C 115 225.903, 114.053 227.521, 112.896 229.145 C 103.916 241.758, 89.843 272.454, 84.998 290 C 79.372 310.373, 78.221 335.294, 82.043 354 C 83.223 359.775, 84.377 365.501, 84.609 366.724 C 84.840 367.947, 85.462 370.085, 85.990 371.474 C 87.631 375.789, 85.583 374.269, 80.998 367.767 C 75.724 360.289, 71.389 351.591, 70.456 346.616 C 70.080 344.615, 69.411 342.754, 68.968 342.480 C 66.936 341.224, 64.752 366.066, 65.964 376.662 C 66.457 380.973, 67.145 386.975, 67.493 390 C 69.677 408.973, 80.397 437.110, 92.449 455.500 C 94.972 459.350, 97.816 463.735, 98.768 465.244 C 99.721 466.753, 100.772 467.990, 101.104 467.994 C 101.436 467.997, 101.982 459.338, 102.318 448.750 C 102.653 438.163, 103.134 427.700, 103.386 425.500 C 108.202 383.528, 123.418 341.052, 150.495 294 C 152.552 290.425, 155.528 285.136, 157.107 282.246 C 158.687 279.356, 161.109 275.203, 162.490 273.016 C 163.870 270.829, 165 268.685, 165 268.252 C 165 267.819, 166.186 265.719, 167.636 263.585 C 173.864 254.419, 190.003 222.932, 200.226 200 C 203.336 193.022, 208.852 176.900, 210.489 170 C 215.370 149.436, 217.595 131.099, 216.659 119.156 C 216.171 112.928, 216.274 111.966, 217.211 114 C 217.971 115.649, 218.367 124.156, 218.374 139 C 218.394 182.387, 212.206 200.850, 168.899 286.629 C 154.146 315.850, 140.658 343.300, 138.925 347.629 C 134.765 358.024, 128.035 376.607, 126.840 381 C 126.316 382.925, 125.492 385.850, 125.009 387.500 C 121.812 398.414, 119.162 410.514, 116.357 427 C 113.814 441.953, 113.823 484.514, 116.372 497.500 C 121.475 523.488, 127.343 544.115, 134.711 561.966 C 139.306 573.097, 152.580 599.407, 154.337 600.865 C 156.329 602.518, 158 591.186, 158 576.024 C 158 562.105, 156.677 558.314, 148.728 549.455 C 144.078 544.272, 140.217 537.590, 138.931 532.500 C 138.514 530.850, 137.456 526.879, 136.580 523.676 C 126.261 485.955, 129.346 457.411, 146.629 430.695 C 153.047 420.773, 158.766 414.212, 179.051 393.500 C 195.750 376.449, 204.284 366.552, 210.093 357.500 C 219.488 342.862, 220.039 341.293, 214.246 345.666 C 203.296 353.932, 188.691 360.311, 172.196 364.030 C 165.220 365.602, 164.757 364.802, 170.671 361.395 C 184.492 353.433, 201.549 340.482, 217.289 326 C 239.918 305.178, 267.718 258.677, 272.587 233.500 C 272.799 232.400, 273.381 230.375, 273.880 229 C 275.775 223.771, 279.340 203.006, 278.488 202.155 C 278.130 201.797, 276.884 202.853, 275.720 204.502 C 270.930 211.285, 255.093 226.409, 248.416 230.578 C 239.762 235.980, 238.769 236.105, 243.168 231.236 C 251.328 222.203, 263.226 201.870, 269.051 187 C 277.857 164.520, 279.675 134.941, 273.538 114 C 272.813 111.525, 271.437 106.861, 270.481 103.636 C 266.245 89.350, 252.764 67.725, 241.348 56.904 C 215.972 32.850, 184.692 21.769, 155.500 26.492 M 238 31.704 C 238 32.205, 240.877 34.727, 244.394 37.309 C 251.743 42.705, 259.486 50.787, 266.567 60.452 C 271.494 67.177, 271.505 67.185, 275.500 66.567 C 295.252 63.513, 333.587 63.831, 350.342 67.187 C 389.379 75.007, 420.512 97.038, 435.882 127.719 C 443.740 143.404, 447.982 160.481, 450.133 185.082 C 454.454 234.490, 432.232 283.835, 394.568 308.469 C 386.763 313.573, 370.155 322, 367.899 322 C 366.919 322, 365.866 322.408, 365.557 322.908 C 364.858 324.038, 333.708 334, 330.871 334 C 330.182 334, 325.992 335.114, 321.559 336.477 C 317.127 337.839, 305.625 341.244, 296 344.045 C 231.083 362.934, 191.360 390.708, 163.769 436.500 C 152.028 455.987, 144 484.155, 144 505.863 C 144 512.388, 145.276 510.764, 148.309 500.379 C 161.225 456.144, 192.372 421.926, 240.655 398.926 C 246.343 396.217, 251.267 394, 251.597 394 C 251.927 394, 253.616 393.378, 255.349 392.617 C 260.950 390.160, 282.407 383.424, 297.500 379.386 C 300.279 378.642, 329.001 372.544, 339.500 370.468 C 362.440 365.933, 375.178 362.982, 399.309 356.612 C 442.354 345.250, 488.525 317.827, 506.411 293 C 524.163 268.360, 533.524 248.855, 536.627 230.045 C 536.857 228.645, 537.569 225.025, 538.207 222 C 539.715 214.858, 539.673 176.406, 538.149 168.500 C 535.735 155.981, 533.713 147.817, 531.582 142 C 530.676 139.525, 529.244 135.554, 528.402 133.175 C 527.559 130.795, 524.649 124.629, 521.934 119.472 C 499.695 77.214, 454.744 48.259, 395.500 38.028 C 391.650 37.363, 386.629 36.414, 384.341 35.918 C 382.054 35.423, 377.104 34.743, 373.341 34.407 C 369.579 34.072, 364.475 33.349, 362 32.802 C 356.167 31.512, 238 30.466, 238 31.704 M 409 371.103 C 405.425 372.074, 399.350 373.741, 395.500 374.806 C 389.031 376.596, 372.423 380.562, 360.500 383.165 C 357.750 383.766, 353.158 384.881, 350.295 385.643 C 347.432 386.406, 344.732 386.931, 344.295 386.811 C 343.590 386.617, 334.554 388.513, 331.244 389.549 C 330.392 389.815, 331.117 391.707, 333.494 395.423 C 335.422 398.437, 337 401.107, 337 401.356 C 337 401.604, 338.509 404.439, 340.352 407.654 C 342.196 410.869, 346.539 418.450, 350.003 424.500 C 357.685 437.918, 357.470 437.549, 373.399 464.597 C 380.493 476.644, 390.891 493.925, 396.506 503 C 402.120 512.075, 410.041 524.895, 414.107 531.488 C 432.915 561.988, 448.853 577.884, 472.657 589.887 C 477.143 592.149, 481.312 594, 481.920 594 C 482.529 594, 483.809 594.426, 484.764 594.946 C 500.834 603.697, 547.819 608.547, 577 604.466 C 582.775 603.659, 589.525 602.729, 592 602.400 C 599.399 601.418, 599.500 601.269, 599.500 591.345 L 599.500 582.500 593.500 581.806 C 556.057 577.478, 529.936 555.314, 493.900 497.296 C 491.921 494.108, 487.918 487.675, 485.005 483 C 482.092 478.325, 476.962 469.896, 473.604 464.269 C 470.247 458.641, 463.833 448.066, 459.350 440.769 C 454.868 433.471, 450.303 425.925, 449.207 424 C 448.111 422.075, 440.892 410.026, 433.166 397.225 C 425.440 384.424, 418.850 373.103, 418.521 372.067 C 417.641 369.294, 416.192 369.147, 409 371.103 M 119.369 563.875 C 114.889 568.944, 102.822 575.823, 95 577.765 C 88.640 579.345, 72.662 582.195, 71.485 581.960 C 67.272 581.118, 67 581.696, 67 591.500 L 67 601 105 601 C 125.900 601, 143 600.752, 143 600.449 C 143 600.147, 139.015 591.709, 134.144 581.699 C 129.273 571.690, 124.885 562.533, 124.394 561.350 C 123.547 559.313, 123.285 559.444, 119.369 563.875" stroke="none" fill="currentColor" fill-rule="evenodd"/>
</svg>